<?xml version="1.0" encoding="UTF-8"?><svg id="Layer_1" xmlns="http://www.w3.org/2000/svg" xmlns:xlink="http://www.w3.org/1999/xlink" viewBox="0 0 600 600"><defs><style>.cls-1{fill:#322e2d;}.cls-2{fill:url(#linear-gradient);}</style><linearGradient id="linear-gradient" x1="234.08" y1="104.02" x2="364.4" y2="234.34" gradientUnits="userSpaceOnUse"><stop offset="0" stop-color="#926840"/><stop offset=".5" stop-color="#e5b576"/><stop offset="1" stop-color="#926840"/></linearGradient></defs><path class="cls-1" d="M59.19,444.02l-10.14-2.54c-2.87-.73-5.13-1.8-6.78-3.2-1.65-1.4-2.48-3.31-2.48-5.73,0-3.09,1.05-5.48,3.14-7.16,2.09-1.69,4.98-2.54,8.65-2.54s6.58.88,8.93,2.65c2.35,1.76,3.97,3.9,4.85,6.39l14.66-4.52c-1.32-3.6-3.23-6.72-5.73-9.37-2.5-2.65-5.6-4.69-9.31-6.12-3.71-1.43-8.03-2.15-12.95-2.15-8.82,0-15.64,2.04-20.45,6.12-4.81,4.08-7.22,9.75-7.22,17.03,0,3.82.81,7.16,2.43,10.03,1.62,2.87,3.86,5.27,6.72,7.22,2.87,1.95,6.17,3.4,9.92,4.35l10.03,2.65c3.38.88,6.04,2.15,7.99,3.8,1.95,1.65,2.92,3.69,2.92,6.12,0,2.8-1.23,5.07-3.69,6.84-2.46,1.76-5.64,2.61-9.54,2.54-3.68-.07-6.72-1.01-9.15-2.81-2.43-1.8-4.12-3.95-5.07-6.45l-14.77,4.41c.51,2.35,1.63,4.59,3.36,6.72,1.73,2.14,3.91,4.06,6.56,5.79,2.65,1.73,5.66,3.07,9.04,4.02,3.38.95,7.02,1.44,10.91,1.44,5.95,0,11.02-.96,15.21-2.87,4.19-1.91,7.39-4.58,9.59-7.99,2.21-3.42,3.31-7.4,3.31-11.96,0-5.14-1.84-9.81-5.51-14-3.68-4.19-8.82-7.09-15.43-8.71Z"/><polygon class="cls-1" points="154.88 441.82 119.16 441.82 119.16 410.95 104.06 410.95 104.06 488.22 119.16 488.22 119.16 455.7 154.88 455.7 154.88 488.22 169.98 488.22 169.98 411.06 154.88 411.06 154.88 441.82"/><polygon class="cls-1" points="247.03 474.44 212.86 474.44 212.86 455.81 241.96 455.81 241.96 442.37 212.86 442.37 212.86 424.84 246.59 424.84 246.59 411.06 197.76 411.06 197.76 488.22 247.03 488.22 247.03 474.44"/><path class="cls-1" d="M288.81,462.65h14.77c5.22,0,9.81-1.12,13.78-3.36,3.97-2.24,7.09-5.31,9.37-9.2,2.28-3.89,3.42-8.34,3.42-13.34s-1.18-9.54-3.53-13.39c-2.35-3.86-5.62-6.87-9.81-9.04-4.19-2.17-9-3.25-14.44-3.25h-28.66v77.16h15.1v-25.57ZM288.81,424.84h13.23c3.75,0,6.82,1.1,9.2,3.31,2.39,2.21,3.58,5.07,3.58,8.6s-1.09,6.41-3.25,8.65c-2.17,2.24-4.94,3.36-8.32,3.36h-14.44v-23.92Z"/><polygon class="cls-1" points="404.67 462.87 366.97 411.06 351.2 411.06 351.2 488.22 366.31 488.22 366.31 435.42 404.67 488.22 419.66 488.22 419.66 411.06 404.67 411.06 404.67 462.87"/><polygon class="cls-1" points="496.71 474.44 462.54 474.44 462.54 455.81 491.64 455.81 491.64 442.37 462.54 442.37 462.54 424.84 496.27 424.84 496.27 411.06 447.44 411.06 447.44 488.22 496.71 488.22 496.71 474.44"/><polygon class="cls-1" points="554.81 488.22 554.81 424.84 577.84 424.84 577.84 411.06 516.55 411.06 516.55 424.84 539.7 424.84 539.7 488.22 554.81 488.22"/><path class="cls-1" d="M37.04,554.25l-10.14-2.54c-2.87-.73-5.13-1.8-6.78-3.2-1.65-1.4-2.48-3.31-2.48-5.73,0-3.09,1.05-5.48,3.14-7.16,2.09-1.69,4.98-2.54,8.65-2.54s6.58.88,8.93,2.65c2.35,1.76,3.97,3.9,4.85,6.39l14.66-4.52c-1.32-3.6-3.23-6.72-5.73-9.37-2.5-2.65-5.6-4.69-9.31-6.12-3.71-1.43-8.03-2.15-12.95-2.15-8.82,0-15.64,2.04-20.45,6.12-4.81,4.08-7.22,9.75-7.22,17.03,0,3.82.81,7.16,2.43,10.03,1.62,2.87,3.86,5.27,6.72,7.22,2.87,1.95,6.17,3.4,9.92,4.35l10.03,2.65c3.38.88,6.04,2.15,7.99,3.8,1.95,1.65,2.92,3.69,2.92,6.12,0,2.8-1.23,5.07-3.69,6.84-2.46,1.76-5.64,2.61-9.54,2.54-3.68-.07-6.72-1.01-9.15-2.81-2.43-1.8-4.12-3.95-5.07-6.45l-14.77,4.41c.51,2.35,1.63,4.59,3.36,6.72,1.73,2.14,3.91,4.06,6.56,5.79,2.65,1.73,5.66,3.07,9.04,4.02,3.38.95,7.02,1.44,10.91,1.44,5.95,0,11.02-.96,15.21-2.87,4.19-1.91,7.39-4.58,9.59-7.99,2.21-3.42,3.31-7.4,3.31-11.96,0-5.14-1.84-9.81-5.51-14-3.68-4.19-8.82-7.09-15.43-8.71Z"/><polygon class="cls-1" points="97.01 566.05 126.11 566.05 126.11 552.6 97.01 552.6 97.01 535.07 130.74 535.07 130.74 521.29 81.9 521.29 81.9 598.46 131.18 598.46 131.18 584.68 97.01 584.68 97.01 566.05"/><path class="cls-1" d="M207.73,579.28c-2.02,2.13-4.34,3.8-6.94,5.01-2.61,1.21-5.49,1.82-8.65,1.82-4.56,0-8.6-1.12-12.13-3.36-3.53-2.24-6.28-5.33-8.27-9.26-1.98-3.93-2.98-8.47-2.98-13.61s.97-9.66,2.92-13.56c1.95-3.9,4.67-6.96,8.16-9.21,3.49-2.24,7.48-3.36,11.96-3.36,3.09,0,5.95.57,8.6,1.71,2.65,1.14,5,2.72,7.05,4.74,2.06,2.02,3.71,4.39,4.96,7.11l14-5.18c-1.84-4.34-4.46-8.18-7.88-11.52-3.42-3.34-7.4-5.95-11.96-7.83-4.56-1.87-9.48-2.81-14.77-2.81-7.5,0-14.13,1.71-19.9,5.13-5.77,3.42-10.31,8.12-13.61,14.11-3.31,5.99-4.96,12.88-4.96,20.67s1.65,14.68,4.96,20.67c3.31,5.99,7.86,10.69,13.67,14.11,5.8,3.42,12.46,5.13,19.95,5.13,5.36,0,10.32-.96,14.88-2.87,4.56-1.91,8.54-4.59,11.96-8.05,3.42-3.45,6.04-7.42,7.88-11.9l-14-5.07c-1.25,2.79-2.88,5.25-4.91,7.39Z"/><path class="cls-1" d="M295.65,569.69c0,3.31-.68,6.19-2.04,8.65-1.36,2.46-3.27,4.35-5.73,5.68-2.46,1.32-5.35,1.99-8.65,1.99s-6.19-.66-8.65-1.99c-2.46-1.32-4.37-3.21-5.73-5.68-1.36-2.46-2.04-5.35-2.04-8.65v-48.39h-15.1v48.39c0,6.17,1.27,11.52,3.8,16.04,2.54,4.52,6.15,8.03,10.86,10.53,4.7,2.5,10.25,3.75,16.65,3.75s12.07-1.25,16.81-3.75c4.74-2.5,8.41-6.01,11.02-10.53,2.61-4.52,3.91-9.87,3.91-16.04v-48.39h-15.1v48.39Z"/><path class="cls-1" d="M380.09,567.98c4.26-2.09,7.62-5.03,10.09-8.82,2.46-3.78,3.69-8.1,3.69-12.95s-1.18-9.24-3.53-12.95c-2.35-3.71-5.62-6.63-9.81-8.76-4.19-2.13-9-3.2-14.44-3.2h-28.66v77.16h15.1v-27.34h11.58l15.76,27.34h17.09l-17.88-30.02c.34-.15.68-.3,1.01-.46ZM352.53,535.07h12.9c3.75,0,6.82,1.03,9.2,3.09,2.39,2.06,3.58,4.74,3.58,8.05,0,2.13-.53,4.04-1.6,5.73-1.07,1.69-2.5,3.01-4.3,3.97-1.8.95-3.84,1.43-6.12,1.43h-13.67v-22.27Z"/><rect class="cls-1" x="419.55" y="521.29" width="15.1" height="77.16"/><polygon class="cls-1" points="455.59 535.07 478.74 535.07 478.74 598.46 493.84 598.46 493.84 535.07 516.88 535.07 516.88 521.29 455.59 521.29 455.59 535.07"/><polygon class="cls-1" points="600 521.29 582.8 521.29 565.11 551.02 547.42 521.29 530.22 521.29 557.56 565.88 557.56 598.46 572.66 598.46 572.66 565.88 600 521.29"/><path class="cls-1" d="M430.74,236.67c-30.52,53.22-75.68,94.16-127.16,115.27l-5.09,2.09-5.02-2.25c-26.66-11.97-73.19-38.51-110.14-89.29h-78.81c-3.54,5.61-9.77,9.35-16.89,9.35-11.03,0-19.97-8.94-19.97-19.97s8.94-19.97,19.97-19.97c7.12,0,13.35,3.74,16.88,9.34h64.84c-.91-1.54-1.82-3.07-2.71-4.65-7.08-12.53-12.83-24.98-17.48-37.16h27.61c3.47,8.11,7.49,16.31,12.16,24.56,32.84,58.07,81.11,88.31,109.99,102.1,44.15-19.54,82.92-55.63,109.61-102.16,23.72-41.36,35.64-88.11,32.51-126.58L299.22,28.44l-142.28,68.67c-.28,16.29.96,35.96,5.59,57.48h-26.13c-2.91-14.98-4.35-29.05-4.86-41.81h-27.02c-3.54,5.61-9.77,9.35-16.88,9.35-11.03,0-19.97-8.94-19.97-19.97s8.94-19.97,19.97-19.97c7.12,0,13.35,3.74,16.88,9.35h26.97c.04-1.09.08-2.17.13-3.22l.37-7.6L299.26,0l165.56,80.44.9,6.83c6.02,45.72-6.74,100.17-34.98,149.4Z"/><path class="cls-1" d="M202.96,187.64v-21.24H68.37c-3.54-5.61-9.77-9.35-16.88-9.35-11.03,0-19.97,8.94-19.97,19.97s8.94,19.97,19.97,19.97c7.12,0,13.35-3.74,16.88-9.35h134.59Z"/><path class="cls-2" d="M365.01,115.92l-22.54,13.02c-5.92-15.26-22.09-23.73-37.73-26.27-12.2-1.97-26.93-.73-37.72,6.09-2.38-7.45-3.03-15.84,1.84-22.4,6.88-9.28,21.37-11.05,32.02-10.4,15.28.91,31.23,6.73,43.59,15.71,3.41,2.49,6.63,5.26,9.55,8.32,4.5,4.71,8.25,10.04,10.99,15.93ZM329.62,252c-6.88,9.28-21.37,11.03-32.03,10.4-15.27-.92-31.21-6.73-43.58-15.72-3.42-2.48-6.63-5.25-9.55-8.31-4.5-4.71-8.25-10.04-10.99-15.93l22.54-13.02c5.92,15.26,22.09,23.73,37.73,26.26,12.2,1.98,26.93.74,37.72-6.08,2.38,7.43,3.03,15.83-1.84,22.4ZM366.68,220.73c-.67,4.5-2.1,8.83-4.22,12.84-1.96,3.69-4.4,7.01-7.26,9.97,1.04-7.95-.01-15.85-3.63-23.44-5.98-12.57-17.77-21.82-29.8-28.25-8.17-4.37-17.02-7.78-25.94-10.22-12.86-3.53-26.26-8.1-37.78-14.88-18.78-11.07-29.67-26.53-26.27-49.13.68-4.48,2.11-8.82,4.24-12.83,1.96-3.69,4.4-7.02,7.26-9.97-1.04,7.95.01,15.84,3.63,23.44,5.98,12.57,17.76,21.82,29.8,28.25,8.17,4.35,17.02,7.77,25.94,10.22,12.86,3.52,26.25,8.08,37.78,14.88,18.78,11.06,29.67,26.53,26.26,49.12Z"/></svg>