<?xml version="1.0" encoding="UTF-8"?><svg id="Layer_1" xmlns="http://www.w3.org/2000/svg" viewBox="0 0 600 487.58"><defs><style>.cls-1{fill:#e5dfdc;}</style></defs><path class="cls-1" d="M549.81,325.95c-42.03,73.3-104.23,129.68-175.12,158.76l-7,2.88-6.91-3.1c-36.72-16.48-100.8-53.04-151.69-122.97h-108.54c-4.87,7.72-13.45,12.87-23.25,12.87-15.18,0-27.5-12.31-27.5-27.5s12.31-27.5,27.5-27.5c9.8,0,18.38,5.15,23.25,12.87h89.3c-1.25-2.12-2.51-4.23-3.73-6.4-9.75-17.26-17.67-34.41-24.07-51.18h38.03c4.78,11.17,10.32,22.46,16.74,33.82,45.23,79.98,111.71,121.62,151.48,140.62,60.8-26.91,114.19-76.62,150.96-140.7,32.67-56.97,49.08-121.34,44.78-174.33l-195.34-94.92-195.94,94.57c-.39,22.43,1.32,49.52,7.7,79.17h-35.98c-4.01-20.63-5.99-40.01-6.7-57.58h-37.21c-4.87,7.72-13.45,12.87-23.25,12.87-15.18,0-27.5-12.31-27.5-27.5s12.31-27.5,27.5-27.5c9.8,0,18.38,5.15,23.25,12.87h37.14c.05-1.5.12-2.98.19-4.44l.5-10.47L368.74,0l228.01,110.78,1.24,9.41c8.29,62.96-9.28,137.95-48.17,205.76Z"/><path class="cls-1" d="M236.11,258.42v-29.25H50.75c-4.87-7.72-13.45-12.87-23.25-12.87C12.31,216.29,0,228.61,0,243.79s12.31,27.5,27.5,27.5c9.8,0,18.39-5.15,23.25-12.87h185.36Z"/><path class="cls-1" d="M459.29,159.65l-31.04,17.93c-8.16-21.01-30.43-32.68-51.96-36.18-16.81-2.71-37.09-1.01-51.94,8.39-3.28-10.26-4.18-21.81,2.54-30.85,9.48-12.77,29.43-15.21,44.09-14.32,21.05,1.25,43,9.26,60.04,21.63,4.7,3.43,9.13,7.25,13.15,11.46,6.19,6.48,11.36,13.83,15.13,21.94ZM410.55,347.06c-9.48,12.77-29.43,15.2-44.11,14.32-21.03-1.27-42.99-9.26-60.02-21.65-4.71-3.41-9.13-7.23-13.15-11.44-6.19-6.48-11.36-13.83-15.13-21.94l31.04-17.93c8.16,21.01,30.43,32.68,51.96,36.16,16.81,2.73,37.09,1.02,51.94-8.37,3.28,10.24,4.18,21.79-2.54,30.85ZM461.6,303.99c-.93,6.19-2.89,12.16-5.82,17.68-2.7,5.09-6.06,9.65-10,13.73,1.43-10.95-.02-21.83-5.01-32.28-8.24-17.31-24.48-30.05-41.04-38.91-11.25-6.01-23.44-10.71-35.72-14.07-17.72-4.86-36.16-11.15-52.03-20.49-25.86-15.25-40.86-36.54-36.18-67.66.94-6.18,2.91-12.14,5.83-17.67,2.7-5.09,6.06-9.67,10-13.73-1.43,10.95.02,21.81,5.01,32.28,8.24,17.31,24.46,30.05,41.04,38.91,11.25,6,23.44,10.69,35.72,14.07,17.72,4.84,36.15,11.13,52.03,20.49,25.86,15.23,40.86,36.54,36.16,67.64Z"/></svg>