<?xml version="1.0" encoding="UTF-8"?><svg id="Layer_1" xmlns="http://www.w3.org/2000/svg" xmlns:xlink="http://www.w3.org/1999/xlink" viewBox="0 0 800 240.81"><defs><style>.cls-1{fill:#e5dfdc;}.cls-2{fill:url(#linear-gradient);}</style><linearGradient id="linear-gradient" x1="137.78" y1="70.76" x2="226.43" y2="159.4" gradientUnits="userSpaceOnUse"><stop offset="0" stop-color="#926840"/><stop offset=".5" stop-color="#e5b576"/><stop offset="1" stop-color="#926840"/></linearGradient></defs><path class="cls-1" d="M361.95,73.06l-7.89-1.97c-2.23-.57-3.99-1.4-5.28-2.49-1.29-1.09-1.93-2.57-1.93-4.46,0-2.4.81-4.26,2.44-5.58,1.63-1.31,3.87-1.97,6.73-1.97s5.12.69,6.95,2.06c1.83,1.37,3.09,3.03,3.77,4.97l11.41-3.52c-1.03-2.8-2.52-5.23-4.46-7.29-1.94-2.06-4.36-3.65-7.25-4.76-2.89-1.11-6.25-1.67-10.08-1.67-6.86,0-12.17,1.59-15.91,4.76-3.75,3.17-5.62,7.59-5.62,13.25,0,2.97.63,5.58,1.89,7.8,1.26,2.23,3,4.1,5.23,5.62,2.23,1.51,4.8,2.65,7.72,3.39l7.81,2.06c2.63.69,4.7,1.67,6.22,2.96,1.51,1.29,2.27,2.87,2.27,4.76,0,2.18-.96,3.95-2.87,5.32-1.92,1.37-4.39,2.03-7.42,1.97-2.86-.06-5.23-.79-7.12-2.19-1.89-1.4-3.2-3.07-3.95-5.02l-11.49,3.43c.4,1.83,1.27,3.57,2.62,5.23,1.34,1.66,3.04,3.16,5.1,4.5,2.06,1.34,4.4,2.39,7.03,3.13,2.63.74,5.46,1.12,8.49,1.12,4.63,0,8.58-.74,11.84-2.23,3.26-1.49,5.75-3.56,7.46-6.22,1.72-2.66,2.57-5.76,2.57-9.31,0-4-1.43-7.63-4.29-10.89-2.86-3.26-6.86-5.52-12.01-6.78Z"/><polygon class="cls-1" points="436.4 71.35 408.61 71.35 408.61 47.33 396.86 47.33 396.86 107.46 408.61 107.46 408.61 82.15 436.4 82.15 436.4 107.46 448.15 107.46 448.15 47.41 436.4 47.41 436.4 71.35"/><polygon class="cls-1" points="508.11 96.73 481.52 96.73 481.52 82.24 504.16 82.24 504.16 71.77 481.52 71.77 481.52 58.13 507.77 58.13 507.77 47.41 469.77 47.41 469.77 107.46 508.11 107.46 508.11 96.73"/><path class="cls-1" d="M540.62,87.56h11.49c4.06,0,7.63-.87,10.72-2.62,3.09-1.74,5.52-4.13,7.29-7.16,1.77-3.03,2.66-6.49,2.66-10.38s-.92-7.42-2.74-10.42c-1.83-3-4.38-5.35-7.63-7.03-3.26-1.69-7.01-2.53-11.24-2.53h-22.3v60.04h11.75v-19.9ZM540.62,58.13h10.29c2.92,0,5.3.86,7.16,2.57,1.86,1.72,2.79,3.95,2.79,6.69s-.84,4.99-2.53,6.73c-1.69,1.75-3.85,2.62-6.48,2.62h-11.24v-18.61Z"/><polygon class="cls-1" points="630.77 87.73 601.43 47.41 589.17 47.41 589.17 107.46 600.92 107.46 600.92 66.37 630.77 107.46 642.43 107.46 642.43 47.41 630.77 47.41 630.77 87.73"/><polygon class="cls-1" points="702.39 96.73 675.8 96.73 675.8 82.24 698.44 82.24 698.44 71.77 675.8 71.77 675.8 58.13 702.05 58.13 702.05 47.41 664.05 47.41 664.05 107.46 702.39 107.46 702.39 96.73"/><polygon class="cls-1" points="747.59 107.46 747.59 58.13 765.52 58.13 765.52 47.41 717.83 47.41 717.83 58.13 735.84 58.13 735.84 107.46 747.59 107.46"/><path class="cls-1" d="M361.95,158.84l-7.89-1.97c-2.23-.57-3.99-1.4-5.28-2.49-1.29-1.09-1.93-2.57-1.93-4.46,0-2.4.81-4.26,2.44-5.58,1.63-1.31,3.87-1.97,6.73-1.97s5.12.69,6.95,2.06c1.83,1.37,3.09,3.03,3.77,4.97l11.41-3.52c-1.03-2.8-2.52-5.23-4.46-7.29-1.94-2.06-4.36-3.65-7.25-4.76-2.89-1.11-6.25-1.67-10.08-1.67-6.86,0-12.17,1.59-15.91,4.76-3.75,3.17-5.62,7.59-5.62,13.25,0,2.97.63,5.58,1.89,7.8,1.26,2.23,3,4.1,5.23,5.62,2.23,1.51,4.8,2.65,7.72,3.39l7.81,2.06c2.63.69,4.7,1.67,6.22,2.96,1.51,1.29,2.27,2.87,2.27,4.76,0,2.18-.96,3.95-2.87,5.32-1.92,1.37-4.39,2.03-7.42,1.97-2.86-.06-5.23-.79-7.12-2.19-1.89-1.4-3.2-3.07-3.95-5.02l-11.49,3.43c.4,1.83,1.27,3.57,2.62,5.23,1.34,1.66,3.04,3.16,5.1,4.5,2.06,1.34,4.4,2.39,7.03,3.13,2.63.74,5.46,1.12,8.49,1.12,4.63,0,8.58-.74,11.84-2.23,3.26-1.49,5.75-3.56,7.46-6.22,1.72-2.66,2.57-5.76,2.57-9.31,0-4-1.43-7.63-4.29-10.89-2.86-3.26-6.86-5.52-12.01-6.78Z"/><polygon class="cls-1" points="408.61 168.01 431.25 168.01 431.25 157.55 408.61 157.55 408.61 143.91 434.86 143.91 434.86 133.19 396.86 133.19 396.86 193.23 435.2 193.23 435.2 182.51 408.61 182.51 408.61 168.01"/><path class="cls-1" d="M494.77,178.31c-1.57,1.66-3.37,2.96-5.4,3.9-2.03.94-4.28,1.41-6.73,1.41-3.55,0-6.69-.87-9.44-2.62-2.74-1.74-4.89-4.14-6.43-7.2-1.54-3.06-2.32-6.59-2.32-10.59s.76-7.52,2.27-10.55c1.51-3.03,3.63-5.42,6.35-7.16,2.72-1.74,5.82-2.62,9.31-2.62,2.4,0,4.63.44,6.69,1.33,2.06.89,3.89,2.12,5.49,3.69,1.6,1.57,2.89,3.42,3.86,5.53l10.89-4.03c-1.43-3.37-3.47-6.36-6.13-8.97-2.66-2.6-5.76-4.63-9.31-6.09-3.55-1.46-7.38-2.19-11.49-2.19-5.83,0-10.99,1.33-15.48,3.99-4.49,2.66-8.02,6.32-10.59,10.98-2.57,4.66-3.86,10.02-3.86,16.08s1.29,11.42,3.86,16.08c2.57,4.66,6.12,8.32,10.64,10.98,4.52,2.66,9.69,3.99,15.53,3.99,4.17,0,8.03-.74,11.58-2.23,3.54-1.49,6.65-3.57,9.31-6.26,2.66-2.69,4.7-5.78,6.13-9.26l-10.89-3.95c-.97,2.17-2.24,4.09-3.82,5.75Z"/><path class="cls-1" d="M563.17,170.84c0,2.57-.53,4.82-1.59,6.73-1.06,1.91-2.55,3.39-4.46,4.42-1.92,1.03-4.16,1.55-6.73,1.55s-4.82-.52-6.73-1.55c-1.92-1.03-3.4-2.5-4.46-4.42-1.06-1.92-1.59-4.16-1.59-6.73v-37.66h-11.75v37.66c0,4.8.99,8.96,2.96,12.48,1.97,3.52,4.79,6.25,8.45,8.19,3.66,1.94,7.98,2.92,12.95,2.92s9.39-.97,13.08-2.92c3.69-1.94,6.55-4.67,8.58-8.19,2.03-3.52,3.05-7.68,3.05-12.48v-37.66h-11.75v37.66Z"/><path class="cls-1" d="M628.88,169.51c3.32-1.63,5.93-3.92,7.85-6.86,1.92-2.94,2.87-6.3,2.87-10.08s-.92-7.19-2.74-10.08c-1.83-2.89-4.38-5.16-7.63-6.82-3.26-1.66-7.01-2.49-11.24-2.49h-22.3v60.04h11.75v-21.27h9.01l12.26,21.27h13.3l-13.91-23.36c.26-.12.53-.23.79-.36ZM607.43,143.91h10.04c2.92,0,5.3.8,7.16,2.4,1.86,1.6,2.79,3.69,2.79,6.26,0,1.66-.42,3.15-1.24,4.46-.83,1.31-1.94,2.35-3.35,3.09-1.4.74-2.99,1.11-4.76,1.11h-10.64v-17.33Z"/><rect class="cls-1" x="659.59" y="133.19" width="11.75" height="60.04"/><polygon class="cls-1" points="687.63 143.91 705.65 143.91 705.65 193.23 717.4 193.23 717.4 143.91 735.32 143.91 735.32 133.19 687.63 133.19 687.63 143.91"/><polygon class="cls-1" points="800 133.19 786.62 133.19 772.85 156.32 759.08 133.19 745.7 133.19 766.98 167.88 766.98 193.23 778.73 193.23 778.73 167.88 800 133.19"/><path class="cls-1" d="M271.55,160.98c-20.76,36.2-51.48,64.05-86.49,78.41l-3.46,1.42-3.41-1.53c-18.14-8.14-49.78-26.19-74.92-60.74h-53.61c-2.4,3.81-6.64,6.36-11.49,6.36-7.5,0-13.58-6.08-13.58-13.58s6.08-13.58,13.58-13.58c4.84,0,9.08,2.54,11.48,6.36h44.1c-.62-1.05-1.24-2.09-1.84-3.16-4.82-8.52-8.73-16.99-11.89-25.28h18.78c2.36,5.51,5.1,11.09,8.27,16.7,22.34,39.5,55.17,60.07,74.81,69.45,30.03-13.29,56.4-37.84,74.56-69.49,16.13-28.14,24.24-59.93,22.11-86.1l-96.48-46.88-96.78,46.71c-.19,11.08.65,24.46,3.8,39.1h-17.77c-1.98-10.19-2.96-19.76-3.31-28.44h-18.38c-2.4,3.81-6.64,6.36-11.49,6.36-7.5,0-13.58-6.08-13.58-13.58s6.08-13.58,13.58-13.58c4.84,0,9.08,2.54,11.49,6.36h18.34c.03-.74.06-1.47.09-2.19l.25-5.17L182.12,0l112.61,54.71.61,4.65c4.09,31.1-4.58,68.13-23.79,101.62Z"/><path class="cls-1" d="M116.62,127.63v-14.45H25.07c-2.4-3.81-6.64-6.36-11.49-6.36-7.5,0-13.58,6.08-13.58,13.58s6.08,13.58,13.58,13.58c4.84,0,9.08-2.54,11.49-6.36h91.55Z"/><path class="cls-2" d="M226.84,78.85l-15.33,8.85c-4.03-10.38-15.03-16.14-25.66-17.87-8.3-1.34-18.32-.5-25.65,4.14-1.62-5.07-2.06-10.77,1.25-15.24,4.68-6.31,14.54-7.51,21.78-7.07,10.4.62,21.24,4.58,29.65,10.68,2.32,1.69,4.51,3.58,6.49,5.66,3.06,3.2,5.61,6.83,7.47,10.84ZM202.77,171.41c-4.68,6.31-14.54,7.51-21.79,7.07-10.39-.63-21.23-4.58-29.64-10.69-2.33-1.69-4.51-3.57-6.49-5.65-3.06-3.2-5.61-6.83-7.47-10.84l15.33-8.85c4.03,10.38,15.03,16.14,25.66,17.86,8.3,1.35,18.32.51,25.65-4.13,1.62,5.06,2.06,10.76-1.25,15.24ZM227.98,150.14c-.46,3.06-1.43,6-2.87,8.73-1.33,2.51-2.99,4.77-4.94,6.78.71-5.41,0-10.78-2.47-15.94-4.07-8.55-12.09-14.84-20.27-19.22-5.55-2.97-11.58-5.29-17.64-6.95-8.75-2.4-17.86-5.51-25.69-10.12-12.77-7.53-20.18-18.05-17.87-33.42.47-3.05,1.44-6,2.88-8.73,1.33-2.51,2.99-4.78,4.94-6.78-.71,5.41,0,10.77,2.47,15.94,4.07,8.55,12.08,14.84,20.27,19.22,5.55,2.96,11.58,5.28,17.64,6.95,8.75,2.39,17.85,5.5,25.69,10.12,12.77,7.52,20.18,18.05,17.86,33.41Z"/></svg>